<?xml version="1.0" standalone="no"?><!DOCTYPE svg PUBLIC "-//W3C//DTD SVG 1.1//EN" "http://www.w3.org/Graphics/SVG/1.1/DTD/svg11.dtd"><svg t="1524019143340" class="icon" style="" viewBox="0 0 1024 1024" version="1.1" xmlns="http://www.w3.org/2000/svg" p-id="1474" xmlns:xlink="http://www.w3.org/1999/xlink" width="200" height="200"><defs><style type="text/css"></style></defs><path d="M507.733333 853.333333c-213.333333 0-401.066667-128-477.866666-324.266666L21.333333 512l4.266667-17.066667C106.666667 298.666667 294.4 170.666667 507.733333 170.666667c209.066667 0 401.066667 132.266667 477.866667 324.266666l4.266667 17.066667-8.533334 17.066667c-72.533333 192-264.533333 324.266667-473.6 324.266666z m-392.533333-341.333333c68.266667 153.6 221.866667 256 392.533333 256 170.666667 0 324.266667-102.4 392.533334-256-68.266667-153.6-221.866667-256-392.533334-256-170.666667 0-324.266667 102.4-392.533333 256z" p-id="1475"></path><path d="M512 512m-170.666667 0a170.666667 170.666667 0 1 0 341.333334 0 170.666667 170.666667 0 1 0-341.333334 0Z" p-id="1476"></path></svg>